<svg role="img" viewBox="0 0 24 24" xmlns="http://www.w3.org/2000/svg" id="Prisma--Streamline-Simple-Icons" height="24" width="24">
  <desc>
    Prisma Streamline Icon: https://streamlinehq.com
  </desc>
  <title>Prisma</title>
  <path d="M21.8068 18.2848 13.5528 0.7565c-0.207 -0.4382 -0.639 -0.7273 -1.1286 -0.7541 -0.5023 -0.0293 -0.9523 0.213 -1.2062 0.6253L2.266 15.1271c-0.2773 0.4518 -0.2718 1.0091 0.0158 1.4555l4.3759 6.7786c0.2608 0.4046 0.7127 0.6388 1.1823 0.6388 0.1332 0 0.267 -0.0188 0.3987 -0.0577l12.7019 -3.7568c0.3891 -0.1151 0.7072 -0.3904 0.8737 -0.7553s0.1633 -0.7828 -0.0075 -1.1454zm-1.8481 0.7519L9.1814 22.2242c-0.3292 0.0975 -0.6448 -0.1873 -0.5756 -0.5194l3.8501 -18.4386c0.072 -0.3448 0.5486 -0.3996 0.699 -0.0803l7.1288 15.138c0.1344 0.2856 -0.019 0.6224 -0.325 0.7128z" fill="#f3f3f3" stroke-width="1"></path>
</svg>